<!-- Generated by IcoMoon.io -->
<svg version="1.1" xmlns="http://www.w3.org/2000/svg" width="20" height="20" viewBox="0 0 680 680">
<title></title>
<g id="icomoon-ignore">
</g>
<path d="M459.136 475.168c-15.008 15.008-39.328 15.008-54.304 0l-84.832-96.96-84.832 96.928c-15.008 15.008-39.328 15.008-54.304 0-15.008-15.008-15.008-39.328 0-54.304l88.256-100.8-88.288-100.864c-15.008-15.008-15.008-39.296 0-54.304s39.296-15.008 54.304 0l84.864 96.992 84.832-96.992c15.008-15.008 39.296-15.008 54.304 0s15.008 39.328 0 54.304l-88.256 100.864 88.256 100.8c15.008 15.008 15.008 39.328 0 54.336z"></path>
</svg>
